<svg width="73" height="144" viewBox="0 0 73 144" fill="none" xmlns="http://www.w3.org/2000/svg">
<path opacity="0.3" fill-rule="evenodd" clip-rule="evenodd" d="M39.027 2.97003C38.9997 1.30262 37.6258 -0.0269194 35.9584 0.00041401C34.291 0.0277475 32.9615 1.40161 32.9888 3.06901L33.1414 12.3761C33.1482 12.7925 33.239 13.1877 33.3973 13.546L30.8204 15.8367V23.5476H30.1428C27.8466 23.5476 25.9852 25.409 25.9852 27.7052C25.9852 30.0014 27.8466 31.8628 30.1428 31.8628H31.4234C30.4879 52.2994 28.4737 68.2667 25.7874 81.2346H19.4889C17.3362 81.2346 15.5911 82.9797 15.5911 85.1324C15.5911 87.2851 17.3362 89.0302 19.4889 89.0302H24.0077C22.0542 96.8232 19.8437 103.437 17.4941 109.299H8.31525C6.01906 109.299 4.15763 111.16 4.15763 113.456C4.15763 115.752 6.01906 117.614 8.31525 117.614H13.864C11.2425 123.17 8.53037 128.115 5.87045 132.964L5.87017 132.965L5.86968 132.966L5.86952 132.966L5.8694 132.966L5.86927 132.966L5.86913 132.967C3.8626 136.625 1.88578 140.229 0 144L14.442 144C16.9886 134.354 26.0883 127.216 36.9234 127.216C47.7585 127.216 56.8582 134.354 59.4047 144H72.0158C70.1304 140.229 68.1539 136.626 66.1477 132.968L66.1468 132.967L66.1467 132.967L66.1466 132.966L66.1464 132.966L66.1463 132.966C63.4861 128.116 60.7737 123.171 58.1519 117.614H64.4432C66.7394 117.614 68.6008 115.752 68.6008 113.456C68.6008 111.16 66.7394 109.299 64.4432 109.299H54.5218C52.1722 103.437 49.9616 96.8232 48.0081 89.0302H52.7499C54.9026 89.0302 56.6477 87.2851 56.6477 85.1324C56.6477 82.9797 54.9026 81.2346 52.7499 81.2346H46.2284C43.5422 68.2667 41.528 52.2994 40.5924 31.8628H42.6157C44.9119 31.8628 46.7733 30.0014 46.7733 27.7052C46.7733 25.409 44.9119 23.5476 42.6157 23.5476H41.8058V15.8367L39.0037 13.3459C39.1232 13.0125 39.1858 12.6522 39.1796 12.2772L39.027 2.97003ZM38.7543 89.3779C39.5172 94.1077 41.8058 103.415 44.247 109.365H36.0079L36.0079 109.366H27.7688C30.21 103.416 32.4987 94.1084 33.2616 89.3786H36.0079V89.3779H38.7543Z" fill="white"/>
</svg>
