<svg width="216" height="197" viewBox="0 0 216 197" fill="none" xmlns="http://www.w3.org/2000/svg">
<path d="M115.657 33.5792C120.626 15.0339 139.689 4.02833 158.234 8.99753V8.99753C176.779 13.9667 187.785 33.029 182.816 51.5743L175.492 78.9062L108.334 60.9112L115.657 33.5792Z" fill="#E66262"/>
<path fill-rule="evenodd" clip-rule="evenodd" d="M157.182 176.665C162.109 176.128 166.538 179.684 167.076 184.608L169.319 205.159C169.596 207.692 168.781 210.223 167.079 212.119C165.377 214.016 162.948 215.1 160.399 215.1H144.322C139.366 215.1 135.349 211.085 135.349 206.132C135.349 201.179 139.366 197.164 144.322 197.164H150.393L149.235 186.553C148.698 181.629 152.256 177.202 157.182 176.665Z" fill="#F8C869"/>
<path d="M133.104 15.2252L122.056 13.6063C106.541 11.3328 95.812 27.784 106.895 38.8771L168.968 53.3153C167.302 33.834 152.45 18.06 133.104 15.2252Z" fill="#E66262"/>
<path fill-rule="evenodd" clip-rule="evenodd" d="M185.478 168.595C189.476 165.668 195.091 166.535 198.02 170.53L210.244 187.207C211.751 189.263 212.312 191.861 211.787 194.354C211.261 196.847 209.7 199 207.492 200.274L193.569 208.307C189.278 210.784 183.79 209.314 181.312 205.025C178.834 200.736 180.304 195.251 184.596 192.774L189.854 189.74L183.543 181.13C180.614 177.134 181.481 171.522 185.478 168.595Z" fill="#F8C869"/>
<path d="M36.5674 80.847C36.5674 41.3879 88.3014 34.4047 115.346 34.5293C158.716 31.9137 207.321 58.0702 206.947 114.12C206.573 170.17 189.374 182.501 168.437 186.985C147.5 191.469 124.693 181.754 124.693 149.618C124.693 123.91 106.497 116.237 97.3992 115.615C48.0467 115.615 37.0659 91.5587 36.5674 80.847Z" fill="#F8EA69"/>
<path fill-rule="evenodd" clip-rule="evenodd" d="M17.9292 134.942C16.8517 135.11 15.7622 135.352 14.7612 135.636C8.6037 137.385 2.19381 133.813 0.44428 127.659C-1.30525 121.505 2.26808 115.099 8.42554 113.351C11.4069 112.504 15.0331 111.786 18.7567 111.583C22.2901 111.391 26.9856 111.596 31.4167 113.505C36.4269 115.664 41.0178 120.066 42.2915 126.976C43.3918 132.945 41.6461 139.008 39.0366 144.511C36.2954 150.292 29.3839 152.758 23.5994 150.018C17.9317 147.334 15.4488 140.649 17.9292 134.942ZM19.4453 130.69C19.4453 130.69 19.4453 130.691 19.4451 130.694C19.4452 130.691 19.4453 130.69 19.4453 130.69Z" fill="#F8EA69"/>
<path d="M129.5 35.5C129.833 36.5 130.3 38.8 129.5 40" stroke="black" stroke-width="7" stroke-linecap="round"/>
<path d="M143 37C143.333 38 143.8 40.3 143 41.5" stroke="black" stroke-width="7" stroke-linecap="round"/>
<path fill-rule="evenodd" clip-rule="evenodd" d="M119.396 51.6345C123.174 49.707 127.8 51.2076 129.727 54.9861C129.877 55.2789 130.968 56.496 133.408 57.0707C135.697 57.6096 137.537 57.1758 138.548 56.4335C141.967 53.9229 146.774 54.6594 149.285 58.0784C151.795 61.4974 151.059 66.3043 147.64 68.8148C142.092 72.8883 135.318 73.3012 129.888 72.0225C124.609 70.7795 118.875 67.5148 116.044 61.9662C114.117 58.1877 115.617 53.562 119.396 51.6345Z" fill="#16191D"/>
<mask id="mask0_322_654" style="mask-type:alpha" maskUnits="userSpaceOnUse" x="115" y="50" width="36" height="23">
<path fill-rule="evenodd" clip-rule="evenodd" d="M119.396 51.6331C121.842 50.3854 124.643 50.5741 126.837 51.8873C129.285 53.3525 130.631 56.4153 133.408 57.0692V57.0692C135.697 57.6081 137.537 57.1743 138.548 56.432C141.967 53.9215 146.774 54.6579 149.285 58.0769C151.795 61.4959 151.059 66.3028 147.64 68.8133C142.092 72.8869 135.318 73.2998 129.888 72.0211C124.609 70.7781 118.875 67.5133 116.044 61.9647C114.117 58.1862 115.618 53.5606 119.396 51.6331Z" fill="#E66262"/>
</mask>
<g mask="url(#mask0_322_654)">
<ellipse cx="142" cy="72.5" rx="18" ry="9.5" fill="#E66262"/>
</g>
<path d="M53.1756 138.71C51.6447 133.213 54.8173 127.591 60.3149 126.06L106.626 113.163C112.288 111.586 118.237 114.944 119.814 120.605L126.939 146.192C128.47 151.69 125.297 157.311 119.799 158.842L73.4882 171.739C67.8263 173.315 61.8773 169.958 60.3007 164.296L53.1756 138.71Z" fill="#434A56"/>
<g filter="url(#filter0_d_322_654)">
<ellipse rx="17.6172" ry="17.6173" transform="matrix(0.999593 5.12639e-09 0.0211604 0.999314 90.0897 142.433)" fill="#8D95A5"/>
<ellipse rx="17.6172" ry="17.6173" transform="matrix(0.999593 5.12639e-09 0.0211604 0.999314 90.0897 142.433)" fill="url(#paint0_linear_322_654)" fill-opacity="0.4"/>
</g>
<ellipse rx="14.3039" ry="14.3247" transform="matrix(0.999546 -0.00970685 0.0308633 0.999062 89.8465 142)" fill="#8D95A5"/>
<ellipse rx="10.6388" ry="10.6543" transform="matrix(0.999546 -0.00970708 0.0308631 0.999062 90.2997 142.066)" fill="#2D3139"/>
<ellipse rx="5.82353" ry="5.83198" transform="matrix(0.999546 -0.00970732 0.0308628 0.999062 90.3 142.065)" fill="#16191D"/>
<ellipse rx="2.23093" ry="2.23416" transform="matrix(0.999546 -0.00970653 0.0308636 0.999062 86.3765 138.611)" fill="#8D95A5"/>
<path fill-rule="evenodd" clip-rule="evenodd" d="M114.768 123.426C113.69 123.593 112.601 123.836 111.6 124.12C105.442 125.868 99.0324 122.297 97.2829 116.143C95.5334 109.989 99.1067 103.583 105.264 101.835C108.245 100.988 111.872 100.27 115.595 100.067C119.129 99.8744 123.824 100.08 128.255 101.989C133.266 104.148 137.856 108.55 139.13 115.46C140.23 121.429 138.485 127.492 135.875 132.995C133.134 138.776 126.223 141.242 120.438 138.502C114.77 135.818 112.287 129.133 114.768 123.426ZM116.284 119.174C116.284 119.174 116.284 119.175 116.284 119.178C116.284 119.175 116.284 119.174 116.284 119.174Z" fill="#F8EA69"/>
<defs>
<filter id="filter0_d_322_654" x="69.2417" y="124.828" width="41.696" height="41.6781" filterUnits="userSpaceOnUse" color-interpolation-filters="sRGB">
<feFlood flood-opacity="0" result="BackgroundImageFix"/>
<feColorMatrix in="SourceAlpha" type="matrix" values="0 0 0 0 0 0 0 0 0 0 0 0 0 0 0 0 0 0 127 0" result="hardAlpha"/>
<feOffset dy="3.23384"/>
<feGaussianBlur stdDeviation="1.61692"/>
<feComposite in2="hardAlpha" operator="out"/>
<feColorMatrix type="matrix" values="0 0 0 0 0 0 0 0 0 0 0 0 0 0 0 0 0 0 0.25 0"/>
<feBlend mode="normal" in2="BackgroundImageFix" result="effect1_dropShadow_322_654"/>
<feBlend mode="normal" in="SourceGraphic" in2="effect1_dropShadow_322_654" result="shape"/>
</filter>
<linearGradient id="paint0_linear_322_654" x1="17.6172" y1="0" x2="17.6172" y2="35.2345" gradientUnits="userSpaceOnUse">
<stop stop-color="white"/>
<stop offset="1" stop-color="white" stop-opacity="0"/>
</linearGradient>
</defs>
</svg>
