<svg width="24" height="24" viewBox="0 0 24 24" fill="none" xmlns="http://www.w3.org/2000/svg">
<path fill-rule="evenodd" clip-rule="evenodd" d="M16.272 10.272C16.272 11.3328 15.8505 12.3503 15.1004 13.1004C14.3503 13.8505 13.3328 14.272 12.272 14.272C11.2111 14.272 10.1937 13.8505 9.44355 13.1004C8.6934 12.3503 8.27197 11.3328 8.27197 10.272C8.27197 9.21111 8.6934 8.19369 9.44355 7.44355C10.1937 6.6934 11.2111 6.27197 12.272 6.27197C13.3328 6.27197 14.3503 6.6934 15.1004 7.44355C15.8505 8.19369 16.272 9.21111 16.272 10.272ZM14.272 10.272C14.272 10.8024 14.0613 11.3111 13.6862 11.6862C13.3111 12.0613 12.8024 12.272 12.272 12.272C11.7415 12.272 11.2328 12.0613 10.8578 11.6862C10.4827 11.3111 10.272 10.8024 10.272 10.272C10.272 9.74154 10.4827 9.23283 10.8578 8.85776C11.2328 8.48269 11.7415 8.27197 12.272 8.27197C12.8024 8.27197 13.3111 8.48269 13.6862 8.85776C14.0613 9.23283 14.272 9.74154 14.272 10.272Z" fill="#A9B0BC"/>
<path fill-rule="evenodd" clip-rule="evenodd" d="M5.794 16.5181C4.50484 15.2907 3.60861 13.7085 3.21864 11.9717C2.82867 10.2349 2.96248 8.42149 3.60315 6.76074C4.24381 5.1 5.36256 3.66652 6.81792 2.6416C8.27328 1.61668 9.99988 1.04634 11.7794 1.00271C13.5589 0.959071 15.3114 1.4441 16.8152 2.39646C18.3191 3.34882 19.5067 4.72574 20.228 6.35309C20.9493 7.98044 21.1718 9.78514 20.8675 11.539C20.5631 13.2928 19.7455 14.917 18.518 16.2061L12.312 22.7241L5.794 16.5181ZM17.07 14.8271L12.243 19.8971L7.173 15.0701C6.17037 14.1154 5.47334 12.8849 5.17005 11.5341C4.86676 10.1833 4.97084 8.77285 5.46912 7.48119C5.9674 6.18953 6.8375 5.07462 7.96941 4.27746C9.10131 3.4803 10.4442 3.03668 11.8282 3.00269C13.2122 2.96871 14.5752 3.3459 15.7449 4.08655C16.9146 4.8272 17.8383 5.89806 18.3994 7.16371C18.9605 8.42936 19.1336 9.83297 18.897 11.197C18.6604 12.5611 18.0246 13.8244 17.07 14.8271Z" fill="#A9B0BC"/>
</svg>
